# xmcd CD database file
#
# Track frame offsets:
#	150
#	26202
#	28685
#	60335
#	88892
#	118050
#	152077
#	200082
#	240392
#	264765
#	294017
#
# Disc length: 4447 seconds
#
# Revision: 0
# Processed by: cddbd v1.5.1PL2 Copyright (c) Steve Scherf et al.
# Submitted via: CDex 1.60beta1
#
DISCID=8e115d0b
DTITLE=Painted Pictures - Tuxedo Sessions
DYEAR=2005
DGENRE=Club
TTITLE0=Sweet Melody
TTITLE1=Fine (Show Your Toes Edit)
TTITLE2=Fine
TTITLE3=Keep It In The Pocket
TTITLE4=Send Me Over
TTITLE5=Livin'
TTITLE6=Woody
TTITLE7=Something
TTITLE8=Fine (John Arnold REMIX)
TTITLE9=Livin' (Alton Miller REMIX)
TTITLE10=Where Do We Go
EXTD=YEAR: 2005
EXTT0=
EXTT1=
EXTT2=
EXTT3=
EXTT4=
EXTT5=
EXTT6=
EXTT7=
EXTT8=
EXTT9=
EXTT10=
PLAYORDER=
